<?xml version="1.0" encoding="utf-8"?>
<!-- Generator: Adobe Illustrator 14.0.0, SVG Export Plug-In . SVG Version: 6.00 Build 43363)  -->
<!DOCTYPE svg PUBLIC "-//W3C//DTD SVG 1.1//EN" "http://www.w3.org/Graphics/SVG/1.1/DTD/svg11.dtd">
<svg version="1.1" id="Calque_1" xmlns="http://www.w3.org/2000/svg" xmlns:xlink="http://www.w3.org/1999/xlink" x="0px" y="0px"
	 width="800px" height="480px" viewBox="0 0 800 480" enable-background="new 0 0 800 480" xml:space="preserve">
<path fill="none" stroke="#000000" stroke-width="2" d="M30.032,441.695c-4.941-3.975-8.103-10.068-8.103-16.902
	c0-10.102,6.919-18.568,16.268-20.982v-5.588c-12.375,2.514-21.689,13.455-21.689,26.57c0,8.102,3.558,15.373,9.193,20.34
	C30.063,449.195,32.774,443.771,30.032,441.695 M61.308,404.256c-2.777-2.508-6.843,1.559-4.178,3.574
	c4.986,3.973,8.179,10.096,8.179,16.963c0,10.104-6.918,18.568-16.268,20.979v5.59c12.376-2.514,21.69-13.451,21.69-26.568
	C70.732,416.58,67.078,409.227,61.308,404.256 M40.593,408.496l8.824-5.283c1.283-0.771,1.286-2.021,0.007-2.797l-8.907-5.391
	c-1.28-0.773-2.316-0.189-2.309,1.309l0.048,10.846C38.26,408.676,39.306,409.266,40.593,408.496 M46.722,441.117l-8.907,5.389
	c-1.281,0.777-1.278,2.027,0.006,2.799l8.825,5.283c1.284,0.768,2.332,0.178,2.339-1.32l0.047-10.844
	C49.036,440.928,48,440.344,46.722,441.117"/>
<g>
	<path fill="none" stroke="#2D2D2D" stroke-width="2" d="M25.453,243.104h-7.18v-8.391h7.18V243.104z M27.62,231.466H16.11
		c-0.598,0-1.081,0.486-1.081,1.082v25.057c0,0.596,0.483,1.08,1.081,1.08h11.512c0.598,0,1.081-0.484,1.081-1.08v-25.057
		C28.699,231.952,28.218,231.466,27.62,231.466"/>
	<path fill="none" stroke="#2D2D2D" stroke-width="2" d="M42.387,245.075h-7.183V228.21h7.183V245.075z M44.552,224.962H33.039
		c-0.594,0-1.08,0.486-1.08,1.082v31.561c0,0.596,0.486,1.08,1.08,1.08h11.513c0.595,0,1.081-0.484,1.081-1.08v-31.561
		C45.633,225.446,45.146,224.962,44.552,224.962"/>
	<path fill="none" stroke="#2D2D2D" stroke-width="2" d="M59.527,237.694h-7.184v-20.865h7.184V237.694z M61.688,213.585H50.181
		c-0.598,0-1.083,0.484-1.083,1.08v42.938c0,0.596,0.485,1.08,1.083,1.08h11.507c0.602,0,1.084-0.484,1.084-1.08v-42.938
		C62.772,214.069,62.29,213.585,61.688,213.585"/>
</g>
<path fill="none" stroke="#000000" stroke-width="2" d="M184.788,318.459l-1.314-3.121c0,0,3.058-6.896,2.785-7.162l-4.045-3.951
	c-0.282-0.273-7.181,2.875-7.181,2.875l-3.184-1.287c0,0-2.812-6.99-3.198-6.99h-5.712c-0.396,0-2.999,7.008-2.999,7.008
	l-3.178,1.287c0,0-7.045-2.992-7.315-2.727l-4.041,3.959c-0.279,0.27,2.937,7.029,2.937,7.029l-1.313,3.117
	c0,0-7.142,2.752-7.142,3.123v5.598c0,0.391,7.159,2.941,7.159,2.941l1.313,3.111c0,0-3.057,6.893-2.79,7.158l4.047,3.961
	c0.273,0.27,7.177-2.881,7.177-2.881l3.187,1.291c0,0,2.811,6.986,3.199,6.986h5.711c0.397,0,3.001-7.008,3.001-7.008l3.188-1.289
	c0,0,7.031,2.994,7.303,2.732l4.047-3.957c0.28-0.274-2.943-7.031-2.943-7.031l1.311-3.117c0,0,7.146-2.756,7.146-3.133v-5.594
	C191.942,321.002,184.788,318.459,184.788,318.459 M174.261,324.301c0,4.502-3.744,8.17-8.345,8.17c-4.597,0-8.346-3.668-8.346-8.17
	c0-4.5,3.749-8.16,8.346-8.16C170.519,316.143,174.261,319.801,174.261,324.301"/>
<g>
	<path fill="none" stroke="#000000" stroke-width="2" stroke-miterlimit="10" d="M64.235,138.403h-36c-7.18,0-13,5.82-13,13
		s5.82,13,13,13c4.601,0,8.632-2.396,10.943-6h14.113c2.312,3.604,6.344,6,10.943,6c7.181,0,13-5.82,13-13
		S71.416,138.403,64.235,138.403z"/>
	
		<line fill="none" stroke="#000000" stroke-width="2" stroke-linejoin="bevel" stroke-miterlimit="10" x1="28.235" y1="143.403" x2="28.235" y2="159.403"/>
	
		<line fill="none" stroke="#000000" stroke-width="2" stroke-linejoin="bevel" stroke-miterlimit="10" x1="36.235" y1="151.403" x2="20.235" y2="151.403"/>
	
		<circle fill="none" stroke="#000000" stroke-width="2" stroke-linejoin="bevel" stroke-miterlimit="10" cx="64.235" cy="151.394" r="7"/>
	
		<line fill="none" stroke="#000000" stroke-width="2" stroke-linejoin="bevel" stroke-miterlimit="10" x1="64.235" y1="144.403" x2="64.235" y2="158.403"/>
	
		<line fill="none" stroke="#000000" stroke-width="2" stroke-linejoin="bevel" stroke-miterlimit="10" x1="71.235" y1="151.403" x2="57.235" y2="151.403"/>
	<polyline fill="none" stroke="#000000" stroke-width="2" stroke-miterlimit="10" points="46.235,138.403 46.235,132.403 
		60.235,132.403 60.235,125.403 50.235,125.403 50.235,122.403 	"/>
</g>
<line fill="none" stroke="#000000" stroke-width="2" stroke-miterlimit="10" x1="50.905" y1="329.649" x2="55.905" y2="334.649"/>
<rect x="61.164" y="330.714" transform="matrix(0.7071 -0.7071 0.7071 0.7071 -224.1932 147.0486)" fill="none" stroke="#000000" stroke-width="2" stroke-miterlimit="10" width="8.485" height="26.87"/>
<polygon fill="none" stroke="#000000" stroke-width="2" stroke-miterlimit="10" points="26.905,311.649 32.905,305.649 
	22.905,299.649 20.905,301.649 "/>
<line fill="none" stroke="#000000" stroke-width="2" stroke-miterlimit="10" x1="42.905" y1="321.649" x2="29.905" y2="308.649"/>
<path fill="none" stroke="#000000" stroke-width="2" stroke-miterlimit="10" d="M72.905,308.149l-8,3.75l-4-4.125l3.5-8.062l0,0
	c-10-0.002-12.5,4.937-12.5,9.937v4l-33.5,34l-1.75,6l2.125,2l6.062-1.5l34.062-33.5h4
	C67.905,320.649,72.905,318.149,72.905,308.149L72.905,308.149z"/>
<g>
	<rect x="363.154" y="39.244" fill="none" stroke="#000000" stroke-width="2" stroke-miterlimit="10" width="58" height="24"/>
	<polyline fill="none" stroke="#000000" stroke-width="2" stroke-miterlimit="10" points="421.154,45.244 425.154,45.244 
		425.154,57.244 421.154,57.244 	"/>
	<rect x="367.154" y="43.244" fill="none" stroke="#000000" stroke-width="2" stroke-miterlimit="10" width="50" height="16"/>
</g>
<g>
	<rect x="249.093" y="38.723" fill="none" stroke="#000000" stroke-width="2" stroke-miterlimit="10" width="58" height="24"/>
	<polyline fill="none" stroke="#000000" stroke-width="2" stroke-miterlimit="10" points="307.093,44.723 311.093,44.723 
		311.093,56.723 307.093,56.723 	"/>
	<polygon fill="none" stroke="#000000" stroke-width="2" stroke-miterlimit="10" points="281.093,58.723 253.093,58.723 
		253.093,42.723 277.093,42.723 	"/>
</g>
<g>
	<g>
		<rect x="128.819" y="40.763" fill="none" stroke="#000000" stroke-width="2" stroke-miterlimit="10" width="58" height="24"/>
		<polyline fill="none" stroke="#000000" stroke-width="2" stroke-miterlimit="10" points="186.819,46.763 190.819,46.763 
			190.819,58.763 186.819,58.763 		"/>
		<rect x="132.819" y="44.763" fill="none" stroke="#000000" stroke-width="2" stroke-miterlimit="10" width="50" height="16"/>
	</g>
	<polyline fill="none" stroke="#000000" stroke-width="2" stroke-miterlimit="10" points="149.819,52.763 156.819,49.763 
		156.819,55.763 163.819,52.763 	"/>
</g>
<g>
	<circle fill="none" stroke="#000000" stroke-width="2" stroke-miterlimit="10" cx="148.186" cy="127.551" r="6"/>
	<path fill="none" stroke="#000000" stroke-width="2" stroke-miterlimit="10" d="M169.186,128.285
		c-0.052-12.006-9.4-21.734-21-21.734c-11.599,0-21,9.729-21,21.734c0,15.537,20.965,40.266,20.965,40.266
		S169.255,143.822,169.186,128.285z"/>
</g>
<path fill="none" stroke="#000000" stroke-width="2" d="M275.613,314.25h41.728c3.293,0,5.961-2.172,5.961-4.849
	c0-2.679-2.668-4.849-5.961-4.849h-41.728c-3.291,0-5.961,2.17-5.961,4.849C269.652,312.078,272.322,314.25,275.613,314.25
	 M317.341,323.945h-41.728c-3.291,0-5.961,2.171-5.961,4.85c0,2.678,2.67,4.849,5.961,4.849h41.728c3.293,0,5.961-2.171,5.961-4.849
	C323.302,326.116,320.634,323.945,317.341,323.945 M317.341,343.34h-41.728c-3.291,0-5.961,2.17-5.961,4.849
	c0,2.677,2.67,4.848,5.961,4.848h41.728c3.293,0,5.961-2.171,5.961-4.848C323.302,345.51,320.634,343.34,317.341,343.34"/>
<g>
	<path fill="none" stroke="#000000" stroke-width="2" d="M152.927,207.055l-20.825,6.371c-2.522,0.721-4.569,3.354-4.569,5.877
		v21.664v0.302c0,0-1.508-1.017-4.869-0.541c-4.936,0.701-8.938,4.488-8.938,8.464c0,3.971,4.003,6.406,8.938,5.707
		c4.939-0.699,8.56-4.371,8.56-8.346v-18.757c0-1.762,2.117-2.516,2.117-2.516l18.415-5.773c0,0,2.037-0.684,2.037,1.201v15.055
		v0.014c0,0-1.875-1.082-5.236-0.674c-4.936,0.598-8.939,4.309-8.939,8.281c0,3.977,4.004,6.492,8.939,5.893
		c4.939-0.598,8.941-4.307,8.941-8.283v-30.674C157.498,207.799,155.451,206.334,152.927,207.055"/>
</g>
<g>
	<path fill-rule="evenodd" clip-rule="evenodd" d="M673.572,420.517c2.735-0.91-1.775-3.504,1-5c7.035-3.012,13.521-16.232,23-18
		c9.895-1.844,22.676,5.711,34,5c7.326-0.459,15.219-4.319,21-6c6.697-1.947,12.802-6.977,20-3c-5.928,6.406-18.275,6.393-27,10
		c6.584,6.453,5.457,16.5,11,23c5.936,6.963,15.116,8.861,24,13c-7.143,8.191-17.524,13.143-27,19c-18.139-10.861-47.41-10.59-66-21
		c-2.812,0.145-2.885-2.449-3-5c-1.454,1.547-5.119,0.881-8,1c-1.547-1.453-0.881-5.119-1-8c-9.219,1.993-10.363-0.293-15,2
		c-10.447,5.166-8.955,25.725-30,21c-5.928-1.33-13.696-9.158-12-20c2.764-17.668,28.295-29.054,26-44
		c-0.684-4.449-5.621-8.839-10-9c-8.894-0.327-9.311,8.254-15,11c3.054-16.771,27.598-17.148,27,1c-0.461,13.953-24.135,25.6-26,41
		c-1.654,13.66,11.271,22.833,24,16c6.828-3.666,7.836-12.72,12-17C662.098,425.043,666.703,421.647,673.572,420.517z
		 M687.572,418.517c23.324-5.949,49.159-14.041,71-21c2.586-0.824,8.1-0.191,8-4C741.121,402.732,712.752,409.029,687.572,418.517z
		 M696.572,399.517c-7.115,6.219-15.225,11.441-21,19c12.408-0.592,18.824-7.175,26-13c4.537,6.922,15.014,1.818,21-1
		C713.781,402.974,707.248,399.173,696.572,399.517z M738.572,410.517c-5.254-5.637-16.402,0.016-22,3c1.57,0.096,3.467-0.134,3,2
		c-3.059,0.725-2.941-1.725-6-1c-0.482,3.482,2.506,3.494,4,5c-1.623,4.711-1.855,10.812-7,12c-6.43,0.678-9.335-4.934-15-2
		c0.898-2.928,0.898-3.072,0-6c-3.473-1.232-8.561-4.928-13-2c7.271,28.062,49.98,20.686,71,35c7.992-5.007,16.238-9.762,23-16
		c-15.461-5.873-27.195-15.473-30-34C740.566,402.91,737.039,406.33,738.572,410.517z M697.572,412.517c2.98-0.352,6.088-0.578,7-3
		c-1.377,0.043-2.196-0.471-3-1C701.475,411.087,697.668,409.946,697.572,412.517z M692.572,420.517c4.562,0.104,4.078,5.254,8,6
		c-1.896-9.229,8.419-6.248,11-11C706.027,413.991,697.271,417.868,692.572,420.517z M701.572,427.517c3.146-0.479,3.908,1.424,6,2
		c1.551-1.783,2.749-3.918,4-6c3.338,1.004,3.278-1.388,3-4C707.363,419.309,702.383,421.327,701.572,427.517z M674.572,422.517
		c2.873,0.207,5.08-0.254,6-2C678.011,420.622,675.805,421.083,674.572,422.517z M677.572,431.517c2,0,4,0,6,0
		c-1.549-3.118-1.23-8.104-6-8C675.362,425.71,678.561,427.603,677.572,431.517z M712.572,428.517c0.144-1.182,1.78-2.268,0-3
		C712.428,426.698,710.791,427.784,712.572,428.517z M689.572,435.517C685.529,431.999,687.213,438.733,689.572,435.517
		L689.572,435.517z"/>
</g>
<path fill="none" stroke="#000000" stroke-width="2" d="M65.86,67.63c-0.676,0-1.352-0.256-1.865-0.771
	c-1.031-1.031-1.031-2.701,0-3.73c7.2-7.201,7.2-18.918,0-26.119c-1.031-1.031-1.031-2.701,0-3.732c1.029-1.029,2.7-1.029,3.729,0
	c4.486,4.486,6.956,10.449,6.956,16.791c0,6.344-2.47,12.307-6.956,16.791C67.21,67.375,66.535,67.63,65.86,67.63 M56.487,62.656
	c-0.675,0-1.35-0.258-1.865-0.773c-1.03-1.029-1.03-2.699,0-3.73c4.458-4.457,4.458-11.711,0-16.168c-1.03-1.031-1.03-2.701,0-3.732
	c1.03-1.029,2.701-1.029,3.731,0c6.515,6.516,6.515,17.117,0,23.631C57.837,62.398,57.163,62.656,56.487,62.656 M48.37,26.25
	c1.41-1.412,2.565-0.934,2.565,1.062v45.512c0,1.994-1.155,2.473-2.565,1.062L35.104,60.623h-8.795V39.515h8.795L48.37,26.25z"/>
<g>
	<defs>
		<rect id="SVGID_1_" x="251.521" y="406.637" width="101.075" height="50.959"/>
	</defs>
	<clipPath id="SVGID_2_">
		<use xlink:href="#SVGID_1_"  overflow="visible"/>
	</clipPath>
	
		<rect x="252.771" y="407.887" clip-path="url(#SVGID_2_)" fill="none" stroke="#292827" stroke-width="2.5" width="98.575" height="48.459"/>
	<polyline clip-path="url(#SVGID_2_)" fill="none" stroke="#292827" stroke-width="2.5" points="256.017,409.875 304.63,435.832 
		349.065,409.875 	"/>
</g>
<g>
	<g>
		<defs>
			<rect id="SVGID_3_" x="116.545" y="382.916" width="98.52" height="83.276"/>
		</defs>
		<clipPath id="SVGID_4_">
			<use xlink:href="#SVGID_3_"  overflow="visible"/>
		</clipPath>
		<path clip-path="url(#SVGID_4_)" fill="none" stroke="#000000" stroke-width="1.875" stroke-miterlimit="10" d="M158.637,459.631
			h13.125v5.625h-13.125V459.631z M156.762,454.006h16.875v5.625h-16.875V454.006z M154.887,448.381h20.625v5.625h-20.625V448.381z
			 M158.637,430.567l3.75,2.812l2.812-2.812l2.812,2.812l3.75-2.812 M168.95,448.381l2.812-18.752 M161.45,448.381l-2.812-18.752
			 M154.887,443.692v4.688h20.625l0.001-4.789c5.624-3.467,9.374-9.684,9.374-16.774c0-10.874-8.814-19.688-19.688-19.688
			c-10.872,0-19.688,8.814-19.688,19.688C145.512,433.91,149.26,440.229,154.887,443.692z"/>
		
			<line clip-path="url(#SVGID_4_)" fill="none" stroke="#010000" stroke-width="1.519" x1="163.912" y1="400.309" x2="163.912" y2="382.916"/>
	</g>
	<line fill="none" stroke="#010000" stroke-width="1.519" x1="180.619" y1="404.893" x2="192.23" y2="391.612"/>
	<line fill="none" stroke="#010000" stroke-width="1.519" x1="143.977" y1="407.045" x2="135.52" y2="390.424"/>
	<g>
		<defs>
			<rect id="SVGID_5_" x="116.546" y="382.916" width="98.52" height="83.276"/>
		</defs>
		<clipPath id="SVGID_6_">
			<use xlink:href="#SVGID_5_"  overflow="visible"/>
		</clipPath>
		
			<line clip-path="url(#SVGID_6_)" fill="none" stroke="#010000" stroke-width="1.519" x1="193.087" y1="417.742" x2="214.81" y2="409.942"/>
		
			<line clip-path="url(#SVGID_6_)" fill="none" stroke="#010000" stroke-width="1.519" x1="138.75" y1="418.814" x2="116.831" y2="409.942"/>
	</g>
</g>
</svg>
